<svg xmlns="http://www.w3.org/2000/svg" viewBox="0 0 1200 630">
  <defs>
    <linearGradient id="a32fs_bg" x1="0%" y1="0%" x2="100%" y2="100%">
      <stop offset="0%" stop-color="#0B0F14"/>
      <stop offset="100%" stop-color="#111827"/>
    </linearGradient>
    <linearGradient id="a32fs_acc" x1="0%" y1="0%" x2="100%" y2="0%">
      <stop offset="0%" stop-color="#00E5FF"/>
      <stop offset="50%" stop-color="#6C63FF"/>
      <stop offset="100%" stop-color="#14F195"/>
    </linearGradient>
  </defs>
  <rect width="1200" height="630" fill="url(#a32fs_bg)"/>
  <rect x="0" y="0" width="1200" height="4" fill="url(#a32fs_acc)"/>
  <rect x="0" y="626" width="1200" height="4" fill="url(#a32fs_acc)"/>
  <image href="/logo.png" x="540" y="30" width="120" height="120" opacity="0.9"/>
  <!-- Package grid -->
  <g transform="translate(100,180)">
    <rect x="0" y="0" width="180" height="60" rx="8" fill="#111827" stroke="#00E5FF" stroke-width="1.5" opacity="0.9"/>
    <text x="90" y="35" text-anchor="middle" fill="#00E5FF" font-family="monospace" font-size="13">oracle-data</text>
    <rect x="200" y="0" width="180" height="60" rx="8" fill="#111827" stroke="#6C63FF" stroke-width="1.5" opacity="0.9"/>
    <text x="290" y="35" text-anchor="middle" fill="#6C63FF" font-family="monospace" font-size="13">ride-js</text>
    <rect x="400" y="0" width="180" height="60" rx="8" fill="#111827" stroke="#14F195" stroke-width="1.5" opacity="0.9"/>
    <text x="490" y="35" text-anchor="middle" fill="#14F195" font-family="monospace" font-size="11">protobuf-serial</text>
    <rect x="600" y="0" width="180" height="60" rx="8" fill="#111827" stroke="#00E5FF" stroke-width="1.5" opacity="0.9"/>
    <text x="690" y="35" text-anchor="middle" fill="#00E5FF" font-family="monospace" font-size="13">ts-types</text>
    <rect x="800" y="0" width="200" height="60" rx="8" fill="#111827" stroke="#6C63FF" stroke-width="1.5" opacity="0.9"/>
    <text x="900" y="35" text-anchor="middle" fill="#6C63FF" font-family="monospace" font-size="11">parse-json-bignum</text>
    <rect x="0" y="80" width="180" height="60" rx="8" fill="#111827" stroke="#14F195" stroke-width="1.5" opacity="0.9"/>
    <text x="90" y="115" text-anchor="middle" fill="#14F195" font-family="monospace" font-size="13">browser-bus</text>
    <rect x="200" y="80" width="180" height="60" rx="8" fill="#111827" stroke="#00E5FF" stroke-width="1.5" opacity="0.9"/>
    <text x="290" y="115" text-anchor="middle" fill="#00E5FF" font-family="monospace" font-size="13">ts-lib-crypto</text>
    <rect x="400" y="80" width="180" height="60" rx="8" fill="#111827" stroke="#6C63FF" stroke-width="1.5" opacity="0.9"/>
    <text x="490" y="115" text-anchor="middle" fill="#6C63FF" font-family="monospace" font-size="13">bignumber</text>
    <rect x="600" y="80" width="180" height="60" rx="8" fill="#111827" stroke="#14F195" stroke-width="1.5" opacity="0.9"/>
    <text x="690" y="115" text-anchor="middle" fill="#14F195" font-family="monospace" font-size="13">marshall</text>
    <rect x="800" y="80" width="200" height="60" rx="8" fill="#111827" stroke="#00E5FF" stroke-width="1.5" opacity="0.9"/>
    <text x="900" y="115" text-anchor="middle" fill="#00E5FF" font-family="monospace" font-size="11">assets-pairs-order</text>
    <rect x="350" y="160" width="300" height="60" rx="8" fill="#111827" stroke="#6C63FF" stroke-width="2" opacity="0.9"/>
    <text x="500" y="195" text-anchor="middle" fill="#6C63FF" font-family="monospace" font-size="13">cubensis-connect</text>
  </g>
  <!-- Upgrade arrows -->
  <g opacity="0.6">
    <line x1="150" y1="470" x2="1050" y2="470" stroke="#14F195" stroke-width="2" stroke-dasharray="8,4"/>
    <polygon points="1050,465 1060,470 1050,475" fill="#14F195"/>
    <text x="600" y="462" text-anchor="middle" fill="#A0AEC0" font-family="sans-serif" font-size="13">ESM · TypeScript Strict · Node 24 · Vitest · Security Hardening</text>
  </g>
  <text x="600" y="530" text-anchor="middle" fill="white" font-family="sans-serif" font-weight="bold" font-size="32">SDK Repository Upgrades</text>
  <text x="600" y="565" text-anchor="middle" fill="#A0AEC0" font-family="sans-serif" font-size="18">11 Core Packages Modernized for Enterprise Development</text>
  <text x="600" y="600" text-anchor="middle" fill="#00E5FF" font-family="sans-serif" font-size="14">decentralchain.io</text>
</svg>
