<svg xmlns="http://www.w3.org/2000/svg" viewBox="0 0 1200 630" aria-label="how DecentralChain works four-layer architecture diagram">
  <defs>
    <linearGradient id="f2_bg" x1="0%" y1="0%" x2="100%" y2="100%">
      <stop offset="0%" stop-color="#0B0F14"/>
      <stop offset="100%" stop-color="#111827"/>
    </linearGradient>
    <linearGradient id="f2_bar" x1="0%" y1="0%" x2="100%" y2="0%">
      <stop offset="0%" stop-color="#00E5FF"/>
      <stop offset="50%" stop-color="#6C63FF"/>
      <stop offset="100%" stop-color="#14F195"/>
    </linearGradient>
  </defs>
  <rect width="1200" height="630" fill="url(#f2_bg)"/>
  <text x="600" y="58" text-anchor="middle" fill="white" font-family="sans-serif" font-size="34" font-weight="700">How DecentralChain Works</text>
  <rect x="340" y="74" width="520" height="3" rx="1.5" fill="url(#f2_bar)"/>
  <text x="600" y="104" text-anchor="middle" fill="#A0AEC0" font-family="sans-serif" font-size="15">Architecture Deep Dive — Four Layers from Consensus to AI</text>
  <rect x="150" y="140" width="900" height="100" rx="14" fill="#0B0F14" stroke="#6C63FF" stroke-width="2"/>
  <rect x="150" y="140" width="900" height="100" rx="14" fill="#6C63FF" fill-opacity="0.04"/>
  <circle cx="200" cy="190" r="24" fill="#6C63FF" fill-opacity="0.12" stroke="#6C63FF" stroke-width="1"/>
  <text x="200" y="195" text-anchor="middle" fill="#6C63FF" font-family="sans-serif" font-size="14" font-weight="700">4</text>
  <text x="250" y="180" fill="white" font-family="sans-serif" font-size="17" font-weight="700">AI Interface Layer</text>
  <text x="250" y="204" fill="#A0AEC0" font-family="sans-serif" font-size="12">Natural Language Processing · Intent Recognition · Command Routing</text>
  <text x="250" y="224" fill="#718096" font-family="sans-serif" font-size="11">Users type commands → AI translates → on-chain execution</text>
  <line x1="600" y1="240" x2="600" y2="258" stroke="#6C63FF" stroke-opacity="0.3" stroke-width="1.5"/>
  <polygon points="594,256 600,266 606,256" fill="#6C63FF" fill-opacity="0.4"/>
  <rect x="150" y="268" width="900" height="100" rx="14" fill="#0B0F14" stroke="#00E5FF" stroke-width="2"/>
  <rect x="150" y="268" width="900" height="100" rx="14" fill="#00E5FF" fill-opacity="0.04"/>
  <circle cx="200" cy="318" r="24" fill="#00E5FF" fill-opacity="0.12" stroke="#00E5FF" stroke-width="1"/>
  <text x="200" y="323" text-anchor="middle" fill="#00E5FF" font-family="sans-serif" font-size="14" font-weight="700">3</text>
  <text x="250" y="308" fill="white" font-family="sans-serif" font-size="17" font-weight="700">DeFi Application Layer</text>
  <text x="250" y="332" fill="#A0AEC0" font-family="sans-serif" font-size="12">AMM DEX · Cross-Chain Bridge · Staking · Token Platform · Liquidity Locker</text>
  <text x="250" y="352" fill="#718096" font-family="sans-serif" font-size="11">Complete DeFi stack — zero third-party dependencies</text>
  <line x1="600" y1="368" x2="600" y2="386" stroke="#00E5FF" stroke-opacity="0.3" stroke-width="1.5"/>
  <polygon points="594,384 600,394 606,384" fill="#00E5FF" fill-opacity="0.4"/>
  <rect x="150" y="396" width="900" height="100" rx="14" fill="#0B0F14" stroke="#14F195" stroke-width="2"/>
  <rect x="150" y="396" width="900" height="100" rx="14" fill="#14F195" fill-opacity="0.04"/>
  <circle cx="200" cy="446" r="24" fill="#14F195" fill-opacity="0.12" stroke="#14F195" stroke-width="1"/>
  <text x="200" y="451" text-anchor="middle" fill="#14F195" font-family="sans-serif" font-size="14" font-weight="700">2</text>
  <text x="250" y="436" fill="white" font-family="sans-serif" font-size="17" font-weight="700">Smart Contract Engine</text>
  <text x="250" y="460" fill="#A0AEC0" font-family="sans-serif" font-size="12">RIDE Language · Formal Verification · Predictable Execution · Non-Turing Complete</text>
  <text x="250" y="480" fill="#718096" font-family="sans-serif" font-size="11">Safety-first design eliminates reentrancy, infinite loops, and gas surprises</text>
  <line x1="600" y1="496" x2="600" y2="514" stroke="#14F195" stroke-opacity="0.3" stroke-width="1.5"/>
  <polygon points="594,512 600,522 606,512" fill="#14F195" fill-opacity="0.4"/>
  <rect x="150" y="524" width="900" height="80" rx="14" fill="#0B0F14" stroke="#00E5FF" stroke-width="2"/>
  <rect x="150" y="524" width="900" height="80" rx="14" fill="#00E5FF" fill-opacity="0.04"/>
  <circle cx="200" cy="564" r="24" fill="#00E5FF" fill-opacity="0.12" stroke="#00E5FF" stroke-width="1"/>
  <text x="200" y="569" text-anchor="middle" fill="#00E5FF" font-family="sans-serif" font-size="14" font-weight="700">1</text>
  <text x="250" y="556" fill="white" font-family="sans-serif" font-size="17" font-weight="700">Green Consensus Layer</text>
  <text x="250" y="580" fill="#A0AEC0" font-family="sans-serif" font-size="12">Leased Proof of Stake · Sub-Second Finality · Carbon Negative · Validator Network</text>
  <text x="600" y="624" text-anchor="middle" fill="#4A5568" font-family="monospace" font-size="11">End-to-end finality: &lt;400ms · Carbon negative · decentralchain.io</text>
</svg>
